<?xml version="1.0"?>
<svg xmlns="http://www.w3.org/2000/svg" xmlns:xlink="http://www.w3.org/1999/xlink" xmlns:svgjs="http://svgjs.com/svgjs" version="1.1" width="512" height="512" x="0" y="0" viewBox="0 0 512 512" style="enable-background:new 0 0 512 512" xml:space="preserve" class=""><g><path xmlns="http://www.w3.org/2000/svg" d="m376 61c0-32.894531-26.585938-61-60-61-33.425781 0-60 28.113281-60 61 0 33.085938 26.914062 60 60 60s60-26.914062 60-60zm-60 30c-16.542969 0-30-13.457031-30-30 0-16.804688 13.738281-31 30-31s30 14.195312 30 31c0 16.542969-13.457031 30-30 30zm0 0" fill="#04163e" data-original="#000000" style="" class=""/><path xmlns="http://www.w3.org/2000/svg" d="m376 121h-120c-41.355469 0-75 33.644531-75 75v106.484375c-14.371094 2.871094-27.660156 9.855469-38.410156 20.363281-10.863282 10.617188-18.082032 23.816406-21.054688 38.152344h-9.605468c5.121093-8.832031 8.070312-19.074219 8.070312-30 0-33.085938-26.914062-60-60-60s-60 26.914062-60 60c0 10.925781 2.949219 21.167969 8.070312 30h-8.070312v151h30v-61h452v61h30c0-23.308594 0-190.195312 0-211h-91v-30h91v-90h-62.507812c-6.96875-34.191406-37.273438-60-73.492188-60zm-120 30h120c19.554688 0 36.226562 12.542969 42.421875 30h-87.421875v60h-60v-60h-30v90h90v30h-120v-105c0-24.8125 20.1875-45 45-45zm-226 180c0-16.542969 13.457031-30 30-30s30 13.457031 30 30-13.457031 30-30 30-30-13.457031-30-30zm0 90v-30h452v30zm452-60h-329.257812c6.476562-17.28125 23.667968-30 43.257812-30h286zm0-120h-91v60h-30v-90h121zm0 0" fill="#04163e" data-original="#000000" style="" class=""/></g></svg>
