<?xml version="1.0"?>
<svg xmlns="http://www.w3.org/2000/svg" xmlns:xlink="http://www.w3.org/1999/xlink" xmlns:svgjs="http://svgjs.com/svgjs" version="1.1" width="512" height="512" x="0" y="0" viewBox="0 0 512 512" style="enable-background:new 0 0 512 512" xml:space="preserve" class=""><g><g xmlns="http://www.w3.org/2000/svg"><path d="m466.475 422h-31v-143.655l13.74-31.378c2.237-5.108.827-.827 1.228-92.064-.013-35.812-29.158-64.959-64.969-64.976l-3.115-.001c22.967-39.6-5.627-89.926-51.884-89.926-46.27 0-74.806 50.318-51.914 89.875-1.535.282-27.452-2.707-49.198 19.085-12.291 12.316-19.035 28.683-18.989 46.117.875 91.265-.526 86.844 1.684 91.889l20.159 46.037-123.1 91.026h-93.587c-8.284 0-15 6.716-15 15s6.716 15 15 15h45.42v67.971h-45.425c-8.284 0-15 6.716-15 15s6.716 15 15 15h450.95c24.813 0 45-20.187 45-45s-20.187-45-45-45zm-136-392c16.514 0 29.95 13.436 29.95 29.95s-13.436 29.95-29.95 29.95c-16.515 0-29.95-13.436-29.95-29.95s13.435-29.95 29.95-29.95zm35.072 392-52.707-67.458c7.063-4.389 12.831-10.796 16.483-18.819l62.491 86.277zm-134.405 0 54.511-53.527 41.822 53.527zm152.242-62.779c8.786-2.608 16.542-7.972 22.091-15.313v45.812zm-108.011-239.347c13.075.006 96.105.046 110.087.053 19.282.009 34.976 15.704 34.983 34.987l.031 82.898-37.386 85.378c-4.109 9.383-17.217 10.708-22.922 1.807-1.157-1.805-3.557-6.634-.87-12.48l31.347-68.202c2.404-5.232.905-2.528 1.42-78.304.006-8.284-6.706-15.005-14.99-15.011-.003 0-.007 0-.01 0-8.28 0-14.994 6.709-15 14.989l-.047 68.773c-9.496 20.68-29.514 64.14-30.463 66.373-.568.076-1.131.195-1.691.337-1.131-2.722 2.56 5.529-30.604-66.709l-.048-68.773c-.006-8.28-6.72-14.989-15-14.989-.004 0-.007 0-.011 0-8.285.006-14.996 6.727-14.99 15.011.515 75.727-.992 73.052 1.421 78.303l31.346 68.203c2.688 5.847.287 10.676-.87 12.48-5.716 8.918-18.822 7.555-22.922-1.806l-37.403-85.417-.408-82.81c-.049-19.373 15.613-35.091 35-35.091zm-13.845 230.243-22.897 22.483-27.036-27.036 32.964-24.375c5.067 10.154 6.643 19.747 16.969 28.928zm-170.578 63.913c22.468.001 26.549 1.106 32.028-2.939l64.226-47.492 30.021 30.021-28.902 28.38h-7.323c-8.284 0-15 6.716-15 15s6.716 15 15 15h60v30h-150.05zm375.525 67.97h-195.475v-30h87.224c.006 0 .012.001.018.001.008 0 .016-.001.024-.001h108.21c8.271 0 15 6.729 15 15s-6.73 15-15.001 15z" fill="#04163e" data-original="#000000" style=""/></g></g></svg>
