<?xml version="1.0"?>
<svg xmlns="http://www.w3.org/2000/svg" xmlns:xlink="http://www.w3.org/1999/xlink" xmlns:svgjs="http://svgjs.com/svgjs" version="1.1" width="512" height="512" x="0" y="0" viewBox="0 0 511.999 511.999" style="enable-background:new 0 0 512 512" xml:space="preserve" class=""><g>
<g xmlns="http://www.w3.org/2000/svg">
	<g>
		<path d="M445.218,139.135c-36.823,0-66.781,29.958-66.781,66.781c0,36.823,29.958,66.781,66.781,66.781    s66.781-29.958,66.781-66.781C511.999,169.093,482.041,139.135,445.218,139.135z M445.218,239.307    c-18.412,0-33.391-14.979-33.391-33.391c0-18.412,14.979-33.391,33.391-33.391s33.391,14.979,33.391,33.391    C478.609,224.328,463.63,239.307,445.218,239.307z" fill="#04163e" data-original="#000000" style=""/>
	</g>
</g>
<g xmlns="http://www.w3.org/2000/svg">
	<g>
		<path d="M410.335,344.021l-33.234-132.936c-5.355-22.71-25.382-38.449-48.749-38.449h-46.564    c-72.866,0-149.092-21.931-203.905-58.477c-23.041-15.37-54.102-9.185-69.461,13.892c-15.344,23.028-9.141,54.105,13.891,69.451    c14.645,9.767,30.44,18.703,47.075,26.756L1.361,382.987c-3.632,8.475,0.294,18.29,8.768,21.922    c8.478,3.633,18.29-0.296,21.922-8.768l67.914-158.467c16.547,6.555,33.697,12.275,51.229,17.079l12.835,51.445h-36.022    c-27.617,0-50.086,22.357-50.086,49.975c0,27.617,22.469,50.086,50.086,50.086H228.18c32.559,0,56.5-30.606,48.593-62.238    l-17.98-71.919c13.518,0.673,21.637,0.596,30.449,0.596l23.909,95.637c6.766,27.006,34.076,43.141,60.74,36.432    C400.675,398.077,417.024,370.83,410.335,344.021z M82.544,193.558c-14.725-7.211-28.714-15.172-41.712-23.84    c-7.664-5.107-9.748-15.464-4.62-23.159c5.068-7.613,15.366-9.807,23.143-4.621c11.352,7.568,23.528,14.558,36.345,20.922    L82.544,193.558z M228.18,372.98H128.008c-9.206,0-16.695-7.601-16.695-16.807c0-9.206,7.49-16.695,16.695-16.695h57.406    c10.865,0,18.826-10.226,16.197-20.746l-13.85-55.392c11.88,2.334,23.854,4.242,35.853,5.716l20.766,83.061    C247.01,362.645,239.039,372.98,228.18,372.98z M365.773,372.379c-8.769,2.204-17.949-3.046-20.23-12.151l-27.069-108.275    c-1.858-7.433-8.536-12.646-16.197-12.646c-29.825,0-101.412,2.314-189.173-32.289l13.138-30.659    c48.279,18.93,102.785,29.556,155.544,29.556h46.564c7.628,0,14.187,5.055,16.131,12.359c0.022,0.095,0.045,0.188,0.068,0.283    l33.389,133.556C380.171,361.055,374.725,370.143,365.773,372.379z" fill="#04163e" data-original="#000000" style=""/>
	</g>
</g>
<g xmlns="http://www.w3.org/2000/svg">
</g>
<g xmlns="http://www.w3.org/2000/svg">
</g>
<g xmlns="http://www.w3.org/2000/svg">
</g>
<g xmlns="http://www.w3.org/2000/svg">
</g>
<g xmlns="http://www.w3.org/2000/svg">
</g>
<g xmlns="http://www.w3.org/2000/svg">
</g>
<g xmlns="http://www.w3.org/2000/svg">
</g>
<g xmlns="http://www.w3.org/2000/svg">
</g>
<g xmlns="http://www.w3.org/2000/svg">
</g>
<g xmlns="http://www.w3.org/2000/svg">
</g>
<g xmlns="http://www.w3.org/2000/svg">
</g>
<g xmlns="http://www.w3.org/2000/svg">
</g>
<g xmlns="http://www.w3.org/2000/svg">
</g>
<g xmlns="http://www.w3.org/2000/svg">
</g>
<g xmlns="http://www.w3.org/2000/svg">
</g>
</g></svg>
